<svg xmlns="http://www.w3.org/2000/svg" viewBox="0 0 800 800">
    <defs>
        <style>
            .cls-1 {
                fill: #b2b2b2;
                stroke: green;
            }
        </style>
    </defs>
    <title>Ativo 36</title>
<g id="Camada_2">
	<g id="Camada_1-2">
		<path fill="#E8E8E8" stroke="#626363" stroke-miterlimit="10" d="M681.975,214.502v-1.786L589.706,79.076L498.033,28.18L420.945,13
			l-69.647,4.762l-81.256,29.764l-41.372,27.681l-55.361,56.849l-25.299,37.205l-18.752,43.753l-5.952,46.432l4.464,67.266
			l2.084,43.455l29.764,53.873l26.192,54.469l0,0l66.076,59.527l53.277,26.789l65.779,16.369h75.303l77.386-22.322l75.898-52.088
			l61.313-82.148v-1.488l27.979-102.982v-2.084L681.975,214.502z M550.716,226.408l-2.084-62.505l66.969,65.481L550.716,226.408z
			 M617.983,237.421l-44.646,56.254l-20.835-59.528L617.983,237.421z M549.526,153.784l29.764-44.051
			c6.548,21.132,24.406,78.875,34.824,108.341L549.526,153.784z M547.442,143.069l-3.274-40.777h29.765L547.442,143.069z
			 M547.442,240.695l20.835,59.527l-58.04,27.086L547.442,240.695z M569.765,307.664v94.947l-59.528-66.076L569.765,307.664z
			 M445.947,193.072l-61.909-22.323l51.194-29.764L445.947,193.072z M442.374,127.889l3.572-40.182l77.981,12.501L442.374,127.889z
			 M442.374,138.604l89.292,17.263l-77.684,37.503L442.374,138.604z M379.573,177.297l66.076,24.109l-54.468,113.103
			L379.573,177.297z M382.549,324.332l-50.896-11.607l41.074-121.14L382.549,324.332z M384.037,161.82l12.501-27.681l29.764,2.679
			L384.037,161.82z M434.338,129.675l-29.764-2.679l34.526-33.633L434.338,129.675z M393.86,124.615l-49.408-36.015h89.292
			L393.86,124.615z M372.727,167.773l-70.838,1.488l84.827-32.443L372.727,167.773z M369.75,175.512L325.7,303.497l-41.968-125.901
			L369.75,175.512z M316.175,299.925l-48.515-52.385l11.607-59.528L316.175,299.925z M309.627,304.092
			c-35.717-16.073-89.292-40.182-105.364-44.944v-33.336l56.849,25.3L309.627,304.092z M309.627,313.32l-111.615,12.203
			c0-27.979,2.679-52.088,3.572-59.529c13.096,4.762,61.909,25.895,109.233,47.326H309.627z M316.175,320.462l-36.609,54.469
			l-72.029-42.266L316.175,320.462z M322.128,325.82l15.18,94.65l-51.194-41.076L322.128,325.82z M331.653,320.759l51.194,11.311
			l-35.717,83.637L331.653,320.759z M391.181,334.154l44.348,14.883l-81.553,66.969L391.181,334.154z M398.027,328.201
			l129.771-80.363l-85.423,95.246L398.027,328.201z M398.027,318.677l56.552-114.89l84.529,27.383L398.027,318.677z M462.911,199.62
			L540,161.82l2.084,64.29L462.911,199.62z M453.09,132.056l83.339-28.276L540,149.319L453.09,132.056z M450.708,80.267
			l25.896-32.145l51.789,44.646L450.708,80.267z M443.268,77.29l-42.86-39.288l67.267,7.441L443.268,77.29z M433.743,79.374h-89.292
			l44.943-41.372L433.743,79.374z M386.121,128.484l-98.52,37.502l46.432-75.601L386.121,128.484z M277.185,168.368l-34.824-22.621
			l78.279-48.813L277.185,168.368z M273.91,175.512l-11.013,55.956l-20.537-76.791L273.91,175.512z M257.54,241.885l-52.979-24.109
			l29.764-61.314L257.54,241.885z M225.098,159.439l-28.276,55.957l-40.182-2.083L225.098,159.439z M160.51,200.216l39.586-65.481
			l29.764,11.906L160.51,200.216z M195.333,223.134v29.764l-37.8-31.55L195.333,223.134z M198.608,336.535l73.517,42.859
			l-78.279,29.766L198.608,336.535z M267.957,389.216L208.43,460.65l-13.394-43.156L267.957,389.216z M278.375,389.216
			l11.013,61.314l-73.814,12.502L278.375,389.216z M289.983,459.46v8.334h-43.455L289.983,459.46z M286.411,390.705l50.004,38.992
			l-39.586,19.049L286.411,390.705z M316.175,448.447l-18.453,15.18v-6.25L316.175,448.447z M342.071,437.136l29.764,61.613
			l-69.945-29.467L342.071,437.136z M355.762,447.554l75.6,69.35l-48.813-13.988L355.762,447.554z M361.119,441.601l139.891,52.98
			l-53.873,24.406L361.119,441.601z M351.297,429.697l89.292-74.709l63.397,131.855L351.297,429.697z M447.137,351.417
			l51.491-11.014l7.739,133.641L447.137,351.417z M499.224,332.962l-47.027,7.441l81.852-89.292L499.224,332.962z M566.788,414.218
			l-52.087,69.053l-8.036-136.021L566.788,414.218z M573.038,418.683l42.86,20.836l-91.673,44.051L573.038,418.683z
			 M581.074,413.921l68.756-33.336l-26.788,53.576L581.074,413.921z M576.015,407.671V310.64l75.303,59.527L576.015,407.671z
			 M625.721,241.587l52.087,72.922l-98.519-15.775L625.721,241.587z M591.195,118.067l80.363,95.245l-42.266,15.775
			C622.744,217.479,606.672,167.773,591.195,118.067z M588.516,91.577l41.67,59.528l-44.051-51.194L588.516,91.577z M582.563,84.434
			l-2.976,9.822l-45.539-36.907L582.563,84.434z M569.765,96.339h-27.979l-29.764-44.944L569.765,96.339z M520.951,77.29
			l-38.99-34.526l12.501-6.846L520.951,77.29z M484.342,32.942l-9.524,5.06l-24.109-11.608L484.342,32.942z M422.433,21.334
			l29.764,14.584l-48.813-5.655L422.433,21.334z M402.194,21.334l-13.097,7.144l-15.477-4.465L402.194,21.334z M351.595,25.798
			l19.347,5.655l-59.528,8.929L351.595,25.798z M377.49,38.299l-45.837,41.67l-47.622-27.979L377.49,38.299z M272.124,54.967
			l48.813,29.764l-84.53,17.561L272.124,54.967z M234.027,79.076l19.942-13.096l-22.323,29.764L234.027,79.076z M309.627,93.958
			l-70.838,45.539l-7.441-26.788L309.627,93.958z M230.455,138.902l-24.109-10.12l17.858-12.501L230.455,138.902z M224.8,94.851
			l-1.786,12.501l-10.417,7.739L224.8,94.851z M207.536,107.947l-11.607,18.454l-7.738,1.786L207.536,107.947z M177.773,137.711
			h6.251l-14.585,13.691L177.773,137.711z M153.069,175.512l26.788-23.216l-29.765,49.111L153.069,175.512z M148.902,224.027
			l45.837,38.098l-58.04,54.169L148.902,224.027z M134.615,215.396l13.394-34.824l-6.846,34.824l-9.524,29.764L134.615,215.396z
			 M130.745,261.529l7.739-17.561l-5.655,43.753L130.745,261.529z M137.591,368.382v-12.203l8.632,27.086L137.591,368.382z
			 M137.591,327.904l59.528-54.766c-1.786,18.156-2.977,50.002-2.977,55.956l-29.764,80.66L137.591,327.904z M190.869,357.667
			l-3.87,54.469l-17.263,4.166L190.869,357.667z M188.191,419.875l10.417,33.633l-27.681-29.764L188.191,419.875z M178.368,443.089
			l22.322,24.406l-8.631,4.168L178.368,443.089z M197.119,477.914l8.93-4.465l25.299,34.824L197.119,477.914z M214.978,472.855
			l73.814,1.486l-34.526,53.873L214.978,472.855z M260.219,533.871l31.55-51.789l10.12,72.326L260.219,533.871z M309.925,557.98
			l-9.822-72.625l61.314,85.422L309.925,557.98z M369.453,566.908l-64.291-87.803l70.541,29.764L369.453,566.908z M384.335,510.058
			l54.17,15.479l-62.504,43.455L384.335,510.058z M446.541,572.564h-61.908l62.802-44.35l40.776,25.895L446.541,572.564z
			 M455.471,524.345l50.896-24.406l-13.394,48.813L455.471,524.345z M514.999,494.582l87.506-41.967l-99.71,89.291L514.999,494.582z
			 M521.547,548.751h-7.739l29.765-14.584L521.547,548.751z M599.529,492.201l-3.571,8.93l-2.977,1.488l-72.029,36.311
			l94.947-86.018L599.529,492.201z M614.708,476.425c4.763-11.904,10.417-25.299,14.584-35.418l17.858-8.334L614.708,476.425z
			 M655.782,419.576l-20.835,10.121l21.133-41.969L655.782,419.576z M663.819,392.193v-20.238l11.013-20.537L663.819,392.193z
			 M658.759,365.109l-72.922-57.445l94.649,13.988L658.759,365.109z M633.459,235.933l41.372-14.584l6.549,84.231L633.459,235.933z"
			/>
	</g>
</g>
</svg>